<svg width="67" height="72" viewBox="0 0 67 72" fill="none" xmlns="http://www.w3.org/2000/svg">
<path d="M33.2994 44.293L26.2778 40.0762V32.3921L59.0787 14.4938L66 18.5233V54.0387L34.2022 70.9998" stroke="#01ADB5"/>
<path d="M34.5031 28.0817L40.6219 32.3922V40.0763L8.02161 57.4123L1 53.7577V18.1486L32.6975 1" stroke="#01ADB5"/>
<path d="M27.8827 47.1043L21.5633 42.8874V29.5809L53.1605 11.9637" stroke="#01ADB5"/>
<path d="M22.9676 49.5409L16.4475 45.8862V26.5824L47.9445 9.15265" stroke="#01ADB5"/>
<path d="M17.6512 52.071L11.1312 48.1352V24.2397L43.0293 6.15399" stroke="#01ADB5"/>
<path d="M12.8364 55.1635L6.21605 51.2278V20.8663L38.0139 3.53033" stroke="#01ADB5"/>
<path d="M39.4182 25.645L45.5371 29.3933V42.6998L14.0401 59.9421" stroke="#01ADB5"/>
<path d="M44.4336 22.5529L50.5525 26.6761V45.6051L18.8549 62.9411" stroke="#01ADB5"/>
<path d="M49.5494 19.7415L55.8688 23.7709V48.3224L24.2716 65.6584" stroke="#01ADB5"/>
<path d="M54.2639 17.1177L60.8843 21.0535V51.0401L29.1867 68.4698" stroke="#01ADB5"/>
</svg>
